<svg width="20" height="18" viewBox="0 0 20 18" fill="none" xmlns="http://www.w3.org/2000/svg">
<g clip-path="url(#clip0_16_1399)">
<path d="M6.5 9C7.69347 9 8.83807 8.52589 9.68198 7.68198C10.5259 6.83807 11 5.69347 11 4.5C11 3.30653 10.5259 2.16193 9.68198 1.31802C8.83807 0.474106 7.69347 0 6.5 0C5.30653 0 4.16193 0.474106 3.31802 1.31802C2.47411 2.16193 2 3.30653 2 4.5C2 5.69347 2.47411 6.83807 3.31802 7.68198C4.16193 8.52589 5.30653 9 6.5 9ZM5.109 16.361L5.816 12.826C5.93203 12.2453 6.21735 11.7119 6.636 11.293L7.929 10H5C3.6744 10.0016 2.40356 10.5289 1.46622 11.4662C0.528882 12.4036 0.00158786 13.6744 0 15L0 17C0 17.2652 0.105357 17.5196 0.292893 17.7071C0.48043 17.8946 0.734784 18 1 18H5.259C5.05586 17.4786 5.00388 16.9106 5.109 16.361ZM8.05 17.95C7.90161 17.9502 7.75504 17.9173 7.62092 17.8538C7.48681 17.7903 7.3685 17.6978 7.27458 17.5829C7.18066 17.468 7.11349 17.3337 7.07793 17.1896C7.04237 17.0456 7.03932 16.8954 7.069 16.75L7.777 13.214C7.81586 13.0203 7.91121 12.8425 8.051 12.703L14.414 6.339C14.9775 5.77799 15.7403 5.46303 16.5355 5.46303C17.3307 5.46303 18.0935 5.77799 18.657 6.339C19.218 6.90253 19.533 7.66533 19.533 8.4605C19.533 9.25567 19.218 10.0185 18.657 10.582L12.292 16.945C12.1525 17.0848 11.9747 17.1801 11.781 17.219L8.245 17.927C8.18084 17.9406 8.11557 17.9483 8.05 17.95Z" fill="white"/>
</g>
<defs>
<clipPath id="clip0_16_1399">
<rect width="20" height="18" fill="white"/>
</clipPath>
</defs>
</svg>
