<svg width="75" height="76" viewBox="0 0 75 76" fill="none" xmlns="http://www.w3.org/2000/svg">
<g clip-path="url(#clip0_16_1387)">
<path d="M39.8366 71.9693L56.6605 19.5199C56.826 19.0047 56.839 18.4536 56.6979 17.9336C56.5568 17.4136 56.2677 16.9469 55.8656 16.5902C55.4635 16.2335 54.9657 16.002 54.4325 15.9239C53.8994 15.8458 53.3539 15.9243 52.8621 16.1501L2.7913 39.1045C2.31491 39.323 1.90838 39.6706 1.6181 40.1077C1.32782 40.5448 1.16546 41.0538 1.14954 41.5766C1.13362 42.0995 1.26478 42.6151 1.52807 43.0647C1.79135 43.5143 2.17616 43.8798 2.63861 44.1195L19.8177 53.0379L37.0635 33.5983C37.5563 33.0428 38.2478 32.7043 38.986 32.6572C39.7242 32.6101 40.4485 32.8583 40.9996 33.3472C41.5507 33.8361 41.8834 34.5257 41.9246 35.2642C41.9659 36.0027 41.7121 36.7297 41.2193 37.2852L23.9735 56.7248L34.8777 72.7204C35.1711 73.1504 35.5799 73.4882 36.0575 73.6955C36.5351 73.9029 37.0624 73.9713 37.5792 73.893C38.0961 73.8147 38.5817 73.5929 38.9808 73.2528C39.3799 72.9127 39.6764 72.468 39.8366 71.9693Z" fill="#232323"/>
</g>
<defs>
<clipPath id="clip0_16_1387">
<rect width="50" height="56" fill="white" transform="translate(37.1636) rotate(41.5779)"/>
</clipPath>
</defs>
</svg>
